HIERARCHY
ROOT Hips
{
	OFFSET 0.00000 0.00000 0.00000
	CHANNELS 6 Xposition Yposition Zposition Zrotation Yrotation Xrotation 
	JOINT LHipJoint
	{
		OFFSET 0 0 0
		CHANNELS 3 Zrotation Yrotation Xrotation
		JOINT LeftHip
		{
			OFFSET 1.62329 -1.80800 0.67318
			CHANNELS 3 Zrotation Yrotation Xrotation
			JOINT LeftKnee
			{
				OFFSET 2.57139 -7.06484 0.00000
				CHANNELS 3 Zrotation Yrotation Xrotation
				JOINT LeftAnkle
				{
					OFFSET 2.52017 -6.92413 0.00000
					CHANNELS 3 Zrotation Yrotation Xrotation
					JOINT LeftToe
					{
						OFFSET 0.23295 -0.64001 2.10214
						CHANNELS 3 Zrotation Yrotation Xrotation
						End Site
						{
							OFFSET 0.00000 -0.00000 1.10139
						}
					}
				}
			}
		}
	}
	JOINT RHipJoint
	{
		OFFSET 0 0 0
		CHANNELS 3 Zrotation Yrotation Xrotation
		JOINT RightHip
		{
			OFFSET -1.48061 -1.80800 0.67318
			CHANNELS 3 Zrotation Yrotation Xrotation
			JOINT RightKnee
			{
				OFFSET -2.63258 -7.23296 0.00000
				CHANNELS 3 Zrotation Yrotation Xrotation
				JOINT RightAnkle
				{
					OFFSET -2.54779 -7.00000 0.00000
					CHANNELS 3 Zrotation Yrotation Xrotation
					JOINT RightToe
					{
						OFFSET -0.23067 -0.63376 2.12161
						CHANNELS 3 Zrotation Yrotation Xrotation
						End Site
						{
							OFFSET -0.00000 -0.00000 1.11000
						}
					}
				}
			}
		}
	}
	JOINT lowerback
	{
		OFFSET 0 0 0
		CHANNELS 3 Zrotation Yrotation Xrotation
		JOINT Chest
		{
			OFFSET -0.02108 2.07573 -0.16981
			CHANNELS 3 Zrotation Yrotation Xrotation
			JOINT Chest2
			{
				OFFSET 0.05070 2.08439 -0.03141
				CHANNELS 3 Zrotation Yrotation Xrotation
				JOINT lowerneck
				{
					OFFSET 0 0 0
					CHANNELS 3 Zrotation Yrotation Xrotation
					JOINT Neck
					{
						OFFSET -0.10731 1.60408 0.31370
						CHANNELS 3 Zrotation Yrotation Xrotation
						JOINT Head
						{
							OFFSET 0.08411 1.65679 -0.30822
							CHANNELS 3 Zrotation Yrotation Xrotation
							End Site
							{
								OFFSET 0.03911 1.69149 -0.14146
							}
						}
					}
				}
				JOINT LeftCollar
				{
					OFFSET 0 0 0
					CHANNELS 3 Zrotation Yrotation Xrotation
					JOINT LeftShoulder
					{
						OFFSET 3.52315 0.73219 -0.54694
CHANNELS 3 Zrotation Xrotation Yrotation
						JOINT LeftElbow
						{
OFFSET 0 -5.324620 -0.000000
CHANNELS 3 Zrotation Xrotation Yrotation
							JOINT LeftWrist
							{
OFFSET 0 -3.484020 -0.000000
CHANNELS 3 Zrotation Xrotation Yrotation
								JOINT lhand
								{
									OFFSET 0 0 0
CHANNELS 3 Zrotation Xrotation Yrotation
									JOINT LFingers
									{
OFFSET 0 -0.572480 -0.000000
CHANNELS 3 Zrotation Xrotation Yrotation
										End Site
										{
OFFSET 0 -0.461540 -0.000000
										}
									}
								}
								JOINT LThumb
								{
OFFSET 0 0.000000 0.000000
CHANNELS 3 Zrotation Xrotation Yrotation
									End Site
									{
OFFSET 0 -0.468590 0.468590
									}
								}
							}
						}
					}
				}
				JOINT RightCollar
				{
					OFFSET 0 0 0
					CHANNELS 3 Zrotation Yrotation Xrotation
					JOINT RightShoulder
					{
						OFFSET -3.41766 0.93592 -0.10019
CHANNELS 3 Zrotation Xrotation Yrotation
						JOINT RightElbow
						{
OFFSET 0 -5.335890 -0.000000
CHANNELS 3 Zrotation Xrotation Yrotation
							JOINT RightWrist
							{
OFFSET 0 -3.641340 -0.000000
CHANNELS 3 Zrotation Xrotation Yrotation
								JOINT rhand
								{
									OFFSET 0 0 0
CHANNELS 3 Zrotation Xrotation Yrotation
									JOINT RFingers
									{
OFFSET 0 -0.734810 -0.000000
CHANNELS 3 Zrotation Xrotation Yrotation
										End Site
										{
OFFSET 0 -0.592420 -0.000000
										}
									}
								}
								JOINT RThumb
								{
OFFSET 0 0.000000 0.000000
CHANNELS 3 Zrotation Xrotation Yrotation
									End Site
									{
OFFSET 0 -0.601470 0.601470
									}
								}
							}
						}
					}
				}
			}
		}
	}
}
MOTION
Frames: 6
Frame Time: 0.008333333333333333
-1.993500 17.681700 0.101200 0.398100 -1.002300 4.290400 0.000000 0.000000 0.000000 -19.241500 -3.606600 -5.952400 1.942800 8.745900 25.003700 0.954600 4.637100 -20.690100 1.278000 -7.164400 -20.203300 0.000000 0.000000 0.000000 17.405500 7.656200 -8.660000 -3.037900 -10.756100 31.461700 -1.779900 2.116400 -24.653500 -0.142200 -2.430400 6.696800 -2.785900 -0.431600 -0.280400 1.903100 -0.569600 -1.574600 3.525400 -0.236100 -1.412900 -10.790400 -3.330200 -22.159200 5.441300 -2.444500 25.015500 3.457900 -1.416500 12.147900 -0.000000 0.000000 0.000000 -1.868900 0.357800 -6.379200 12.911800 -21.157800 2.421400 11.812100 14.715200 -27.100000 0.000000 0.000000 0.000000 -7.125000 0.000000 0.000000 -19.991800 56.440500 5.768900 -0.000000 0.000000 0.000000 -2.321200 1.814300 8.315300 -15.702100 -25.115100 -3.518600 -19.740100 19.140900 -0.221100 0.000000 0.000000 0.000000 7.125000 0.000000 -0.000000 5.362600 29.724200 2.006000
-1.986897 17.675044 0.100196 0.292540 -1.001210 4.227236 0.000000 0.000000 0.000000 -19.118794 -3.449791 -6.077378 1.979908 8.824062 25.246450 0.991303 4.275832 -20.814142 1.294992 -7.210017 -20.339110 0.000000 0.000000 0.000000 17.503398 7.628326 -8.656167 -3.053486 -10.781184 31.545336 -1.785615 2.103277 -24.697477 -0.132605 -2.347012 6.465694 -2.645110 -0.376474 -0.121458 1.955882 -0.497767 -1.503885 3.500761 -0.202174 -1.435788 -10.779687 -3.314824 -22.089037 5.486363 -2.444493 24.848703 3.469275 -1.406299 12.068777 0.000000 0.000000 0.000000 -1.766609 0.331980 -6.602371 13.033930 -21.336948 2.465631 11.590512 14.771691 -27.829546 0.000000 0.000000 0.000000 -7.125000 0.000000 0.000000 -20.690311 57.077205 6.305888 0.000000 0.000000 0.000000 -2.319111 1.731118 8.234286 -15.709482 -25.125132 -3.521721 -19.601831 18.931125 -0.710698 0.000000 0.000000 0.000000 7.125000 0.000000 0.000000 5.444205 29.206155 2.104139
-1.975267 17.673167 0.114074 0.682145 -0.852297 4.326178 0.000000 0.000000 0.000000 -19.560735 -3.381601 -6.108377 1.951486 8.764272 25.060721 0.981973 4.132085 -20.645543 1.298601 -7.219570 -20.367563 0.000000 0.000000 0.000000 17.028655 7.566949 -8.893351 -3.117517 -10.882936 31.886025 -1.816692 2.117931 -24.914711 -0.118100 -2.213897 6.097186 -2.999936 -0.473084 -0.254676 1.964928 -0.626062 -1.484072 3.710410 -0.264286 -1.327186 -10.737929 -3.279122 -22.183087 5.280573 -2.338047 24.946894 3.403365 -1.383330 12.113094 0.000000 0.000000 0.000000 -1.900864 0.277301 -6.353026 12.974513 -21.249797 2.444008 11.795628 14.847335 -27.671885 0.000000 0.000000 0.000000 -7.125000 0.000000 0.000000 -20.378145 56.972704 6.152954 0.000000 0.000000 0.000000 -2.537205 1.683577 8.662740 -15.728854 -25.151596 -3.529926 -19.507974 19.118539 -0.296957 0.000000 0.000000 0.000000 7.125000 0.000000 0.000000 5.540257 29.642987 2.083785
-1.967283 17.666891 0.129125 0.715286 -0.719981 4.300275 0.000000 0.000000 0.000000 -19.586218 -3.190313 -6.137675 1.959641 8.781453 25.114039 0.991834 3.867574 -20.586168 1.290961 -7.199265 -20.307091 0.000000 0.000000 0.000000 16.974031 7.444410 -8.948297 -3.159169 -10.948382 32.106021 -1.813053 2.078457 -24.898629 -0.087766 -1.910281 5.257680 -2.974553 -0.494081 -0.165915 1.998538 -0.655675 -1.509914 3.732241 -0.277327 -1.400950 -10.802657 -3.264017 -21.999210 5.402899 -2.349865 24.837792 3.456468 -1.377981 12.037447 0.000000 0.000000 0.000000 -1.998624 0.333901 -5.838214 12.859022 -21.080263 2.402303 11.588988 15.233680 -27.973326 0.000000 0.000000 0.000000 -7.125000 0.000000 0.000000 -20.788014 57.210956 6.405363 0.000000 0.000000 0.000000 -2.445102 1.814411 8.540089 -15.721610 -25.141707 -3.526846 -19.738974 19.073562 -0.157649 0.000000 0.000000 0.000000 7.125000 0.000000 0.000000 5.366961 29.791228 1.998972
-1.952748 17.641714 0.147894 1.059391 -0.596091 4.334630 0.000000 0.000000 0.000000 -19.928242 -2.798180 -6.561238 2.044485 8.958181 25.664723 1.067272 3.086729 -20.855529 1.283728 -7.179836 -20.249372 0.000000 0.000000 0.000000 16.486557 6.984876 -9.400352 -3.294397 -11.156995 32.811155 -1.871016 2.509301 -25.204725 -0.062712 -1.614757 4.442070 -3.177721 -0.557492 0.011541 1.928184 -0.747152 -1.508697 3.777189 -0.319253 -1.490166 -10.731464 -3.221816 -22.557140 5.462425 -2.268173 25.013315 3.486850 -1.324687 12.206679 0.000000 0.000000 0.000000 -1.886327 0.186871 -5.389890 12.844096 -21.058360 2.396969 11.528665 14.432344 -27.679345 0.000000 0.000000 0.000000 -7.125000 0.000000 0.000000 -20.653096 56.924274 6.216421 0.000000 0.000000 0.000000 -2.008016 1.572450 5.857133 -15.896882 -25.380553 -3.601652 -18.251540 19.099862 -0.244767 0.000000 0.000000 0.000000 7.125000 0.000000 0.000000 6.527128 29.691319 2.451447
-1.971742 17.519526 0.096318 2.211899 -0.194843 3.424851 0.000000 0.000000 0.000000 -20.848656 -2.247188 -8.149083 2.662065 10.126147 29.386818 1.258258 1.414358 -21.749420 1.211716 -6.982786 -19.664486 0.000000 0.000000 0.000000 15.189308 5.988605 -10.729257 -3.986318 -12.141788 36.235954 -2.030584 3.856776 -26.020135 -0.039281 -1.277953 3.513951 -4.240689 -0.679533 2.046992 1.400026 -1.008028 -1.302106 3.865327 -0.421032 -2.392073 -10.356395 -3.199061 -23.438290 5.540770 -2.293642 24.992508 3.451676 -1.278503 12.367112 0.000000 0.000000 0.000000 0.181799 1.378791 -6.126961 14.479521 -23.415707 3.016252 8.712701 11.631109 -25.538663 0.000000 0.000000 0.000000 -7.125000 0.000000 0.000000 -22.096910 54.383443 5.290491 0.000000 0.000000 0.000000 -0.848690 0.603703 -2.242329 -16.387241 -26.042870 -3.814392 -18.851689 15.970960 -3.210145 0.000000 0.000000 0.000000 7.125000 0.000000 0.000000 5.906261 26.578671 2.652668
